General
Complete name                            : Seikon no Qwaser 02 - 005 [FlyH] vostfr FullHD.mp4
Format                                   : MPEG-4
Format profile                           : Base Media
Codec ID                                 : isom
File size                                : 360 MiB
Duration                                 : 23mn 36s
Overall bit rate mode                    : Variable
Overall bit rate                         : 2 133 Kbps

Video
ID                                       : 1
Format                                   : AVC
Format/Info                              : Advanced Video Codec
Format profile                           : High@L4.1
Format settings, CABAC                   : Yes
Format settings, ReFrames                : 4 frames
Codec ID                                 : avc1
Codec ID/Info                            : Advanced Video Coding
Duration                                 : 23mn 35s
Bit rate                                 : 2 000 Kbps
Maximum bit rate                         : 9 583 Kbps
Width                                    : 1 920 pixels
Height                                   : 1 080 pixels
Display aspect ratio                     : 16:9
Frame rate mode                          : Constant
Frame rate                               : 23.976 fps
Color space                              : YUV
Chroma subsampling                       : 4:2:0
Bit depth                                : 8 bits
Scan type                                : Progressive
Bits/(Pixel*Frame)                       : 0.040
Stream size                              : 338 MiB (94%)
Writing library                          : x264 core 118 r2085 8a62835

Audio
ID                                       : 2
Format                                   : AAC
Format/Info                              : Advanced Audio Codec
Format profile                           : LC
Codec ID                                 : 40
Duration                                 : 23mn 36s
Bit rate mode                            : Variable
Bit rate                                 : 128 Kbps
Maximum bit rate                         : 145 Kbps
Channel(s)                               : 2 channels
Channel positions                        : Front: L R
Sampling rate                            : 48.0 KHz
Compression mode                         : Lossy
Stream size                              : 21.6 MiB (6%)
